<svg width="24" height="24" viewBox="0 0 24 24" fill="none" xmlns="http://www.w3.org/2000/svg">
<path fill-rule="evenodd" clip-rule="evenodd" d="M19.46 2H16.08C14.67 2 13.54 3.15 13.54 4.561V7.97C13.54 9.39 14.67 10.53 16.08 10.53H19.46C20.86 10.53 22 9.39 22 7.97V4.561C22 3.15 20.86 2 19.46 2ZM4.54 2.00002H7.92C9.33 2.00002 10.46 3.15002 10.46 4.56102V7.97002C10.46 9.39002 9.33 10.53 7.92 10.53H4.54C3.14 10.53 2 9.39002 2 7.97002V4.56102C2 3.15002 3.14 2.00002 4.54 2.00002ZM4.54001 13.4697H7.92001C9.33001 13.4697 10.46 14.6107 10.46 16.0307V19.4397C10.46 20.8497 9.33001 21.9997 7.92001 21.9997H4.54001C3.14001 21.9997 2.00001 20.8497 2.00001 19.4397V16.0307C2.00001 14.6107 3.14001 13.4697 4.54001 13.4697ZM16.08 13.4697H19.46C20.86 13.4697 22 14.6107 22 16.0307V19.4397C22 20.8497 20.86 21.9997 19.46 21.9997H16.08C14.67 21.9997 13.54 20.8497 13.54 19.4397V16.0307C13.54 14.6107 14.67 13.4697 16.08 13.4697Z" fill="#D5D5E1"/>
</svg>
