<svg width="24" height="24" viewBox="0 0 24 24" fill="none" xmlns="http://www.w3.org/2000/svg">
<path fill-rule="evenodd" clip-rule="evenodd" d="M12.3265 2.20966C12.4862 2.06632 12.6974 1.99119 12.9136 2.00082C17.4844 2.13765 21.3045 5.4558 21.9968 9.89063C22.0012 9.91711 22.0012 9.94411 21.9968 9.97059C22.0117 10.1804 21.9408 10.3874 21.7997 10.5458C21.6586 10.7043 21.4591 10.801 21.2451 10.8147L13.5656 11.3211C13.3117 11.3436 13.0598 11.26 12.8719 11.0909C12.684 10.9218 12.5775 10.6828 12.5785 10.4326L12.0624 2.88932V2.76493C12.0717 2.55278 12.1668 2.353 12.3265 2.20966ZM11.7998 13.2936L18.4559 12.8671L18.5012 12.8849C18.787 12.8895 19.0593 13.0054 19.258 13.2071C19.4567 13.4087 19.5656 13.6795 19.5608 13.9599C19.2985 17.782 16.4963 20.9755 12.6829 21.7982C8.8695 22.621 4.9603 20.8754 3.0879 17.5139C2.53734 16.5457 2.18942 15.4794 2.06458 14.3775C2.01615 14.051 1.99495 13.7212 2.00118 13.3913C2.0138 9.32708 4.9074 5.81908 8.95619 4.95951C9.44632 4.86777 9.93774 5.11249 10.1516 5.5548C10.2048 5.63506 10.2474 5.72165 10.2784 5.81247C10.3543 6.98399 10.433 8.14443 10.5114 9.29997C10.5733 10.2126 10.635 11.1223 10.6949 12.0319C10.6918 12.2462 10.7255 12.4594 10.7946 12.6627C10.9571 13.0628 11.3615 13.3165 11.7998 13.2936Z" fill="#D5D5E1"/>
</svg>
