<svg width="50" height="17" viewBox="0 0 50 17" fill="none" xmlns="http://www.w3.org/2000/svg">
<path d="M18.6048 0.627471L12.1895 15.9327H8.00382L4.84721 3.7167C4.65528 2.96532 4.4899 2.68968 3.90595 2.3732C2.95447 1.85663 1.38229 1.37272 0 1.07054L0.0939224 0.627471H6.83183C7.27214 0.62703 7.6981 0.784004 8.03283 1.07006C8.36756 1.35611 8.58901 1.7524 8.65719 2.1874L10.3253 11.0447L14.4457 0.627471H18.6048ZM35.0065 10.9365C35.0228 6.89577 29.4202 6.67321 29.459 4.86827C29.4712 4.31903 29.9939 3.73508 31.1373 3.58603C32.4773 3.45876 33.8268 3.69579 35.0433 4.27207L35.7375 1.02562C34.5532 0.580397 33.2989 0.350147 32.0337 0.345703C28.1195 0.345703 25.3652 2.42833 25.3407 5.4073C25.3162 7.61039 27.3069 8.83751 28.8076 9.57256C30.3512 10.3219 30.8698 10.8038 30.8617 11.4735C30.8515 12.5025 29.6325 12.9538 28.4932 12.9721C26.5024 13.0028 25.3488 12.4351 24.4259 12.0064L23.7093 15.359C24.6342 15.7837 26.3411 16.1553 28.1114 16.1716C32.2705 16.1716 34.9922 14.1176 35.0065 10.9365ZM45.34 15.9327H49.003L45.8076 0.627471H42.4264C42.0651 0.624123 41.7112 0.729394 41.4104 0.929632C41.1097 1.12987 40.8761 1.41584 40.7399 1.75046L34.8003 15.9327H38.9574L39.7843 13.6459H44.8643L45.34 15.9327ZM40.9236 10.5097L43.0062 4.7621L44.2068 10.5097H40.9236ZM24.2626 0.627471L20.9896 15.9327H17.0285L20.3056 0.627471H24.2626Z" fill="white"/>
</svg>
